<svg viewBox="0 0 383 275" fill="none" xmlns="http://www.w3.org/2000/svg"><path d="M271.8 137.459c0 75.645-60.737 136.959-135.65 136.959C61.237 274.418.5 213.104.5 137.459.5 61.814 61.237.5 136.15.5 211.063.5 271.8 61.814 271.8 137.459Z" stroke="url(#a)"/><path d="M288.818 137.459c0 75.638-61.609 136.959-137.613 136.959-76.004 0-137.614-61.321-137.614-136.959S75.201.5 151.205.5s137.613 61.32 137.613 136.959Z" stroke="url(#b)"/><circle cx="166.26" cy="137.459" r="136.959" stroke="url(#c)"/><path d="M321.546 137.459c0 75.642-61.027 136.959-136.304 136.959-75.276 0-136.304-61.317-136.304-136.959C48.938 61.816 109.966.5 185.242.5c75.277 0 136.304 61.316 136.304 136.959Z" stroke="url(#d)"/><path d="M341.183 137.459c0 75.642-61.027 136.959-136.304 136.959S68.575 213.101 68.575 137.459C68.575 61.816 129.602.5 204.879.5s136.304 61.316 136.304 136.959Z" stroke="url(#e)"/><path d="M362.13 137.459c0 75.642-61.028 136.959-136.305 136.959-75.276 0-136.304-61.317-136.304-136.959C89.52 61.816 150.549.5 225.825.5 301.102.5 362.13 61.816 362.13 137.459Z" stroke="url(#f)"/><path d="M381.767 137.459c0 75.645-60.737 136.959-135.65 136.959-74.913 0-135.65-61.314-135.65-136.959C110.467 61.814 171.204.5 246.117.5c74.913 0 135.65 61.314 135.65 136.959Z" stroke="url(#g)"/><defs><linearGradient id="a" x1="267.219" y1="0" x2="-20.419" y2="23.347" gradientUnits="userSpaceOnUse"><stop stop-color="#3359B9"/><stop offset="1" stop-color="#487BCE"/></linearGradient><linearGradient id="b" x1="284.165" y1="0" x2="-7.567" y2="24.02" gradientUnits="userSpaceOnUse"><stop stop-color="#3359B9"/><stop offset="1" stop-color="#487BCE"/></linearGradient><linearGradient id="c" x1="298.59" y1="0" x2="8.222" y2="23.795" gradientUnits="userSpaceOnUse"><stop stop-color="#3359B9"/><stop offset="1" stop-color="#487BCE"/></linearGradient><linearGradient id="d" x1="316.942" y1="0" x2="27.939" y2="23.57" gradientUnits="userSpaceOnUse"><stop stop-color="#3359B9"/><stop offset="1" stop-color="#487BCE"/></linearGradient><linearGradient id="e" x1="336.579" y1="0" x2="47.575" y2="23.57" gradientUnits="userSpaceOnUse"><stop stop-color="#3359B9"/><stop offset="1" stop-color="#487BCE"/></linearGradient><linearGradient id="f" x1="357.525" y1="0" x2="68.522" y2="23.57" gradientUnits="userSpaceOnUse"><stop stop-color="#3359B9"/><stop offset="1" stop-color="#487BCE"/></linearGradient><linearGradient id="g" x1="377.187" y1="0" x2="89.548" y2="23.347" gradientUnits="userSpaceOnUse"><stop stop-color="#3359B9"/><stop offset="1" stop-color="#487BCE"/></linearGradient></defs></svg>