<svg viewBox="0 0 290 540" fill="none" xmlns="http://www.w3.org/2000/svg"><path d="M533.5 270c0 148.846-119.321 269.5-266.5 269.5S.5 418.846.5 270 119.821.5 267 .5 533.5 121.154 533.5 270Z" stroke="url(#a)"/><path d="M567.5 270c0 148.839-121.105 269.5-270.5 269.5-149.395 0-270.5-120.661-270.5-269.5S147.605.5 297 .5C446.395.5 567.5 121.161 567.5 270Z" stroke="url(#b)"/><path d="M595.5 270c0 148.842-120.436 269.5-269 269.5S57.5 418.842 57.5 270C57.5 121.158 177.936.5 326.5.5s269 120.658 269 269.5Z" stroke="url(#c)"/><path d="M631.5 270c0 148.843-119.99 269.5-268 269.5S95.5 418.843 95.5 270C95.5 121.157 215.49.5 363.5.5s268 120.657 268 269.5Z" stroke="url(#d)"/><path d="M669.5 270c0 148.844-119.767 269.5-267.5 269.5S134.5 418.844 134.5 270 254.267.5 402 .5 669.5 121.156 669.5 270Z" stroke="url(#e)"/><path d="M710.5 270c0 148.844-119.767 269.5-267.5 269.5S175.5 418.844 175.5 270 295.267.5 443 .5 710.5 121.156 710.5 270Z" stroke="url(#f)"/><path d="M749.5 270c0 148.846-119.321 269.5-266.5 269.5S216.5 418.846 216.5 270 335.821.5 483 .5 749.5 121.154 749.5 270Z" stroke="url(#g)"/><defs><linearGradient id="a" x1="524.037" y1="0" x2="-40.056" y2="45.712" gradientUnits="userSpaceOnUse"><stop stop-color="#3359B9"/><stop offset="1" stop-color="#487BCE"/></linearGradient><linearGradient id="b" x1="557.888" y1="0" x2="-14.543" y2="47.083" gradientUnits="userSpaceOnUse"><stop stop-color="#3359B9"/><stop offset="1" stop-color="#487BCE"/></linearGradient><linearGradient id="c" x1="585.944" y1="0" x2="16.639" y2="46.567" gradientUnits="userSpaceOnUse"><stop stop-color="#3359B9"/><stop offset="1" stop-color="#487BCE"/></linearGradient><linearGradient id="d" x1="621.981" y1="0" x2="54.761" y2="46.224" gradientUnits="userSpaceOnUse"><stop stop-color="#3359B9"/><stop offset="1" stop-color="#487BCE"/></linearGradient><linearGradient id="e" x1="660" y1="0" x2="93.822" y2="46.053" gradientUnits="userSpaceOnUse"><stop stop-color="#3359B9"/><stop offset="1" stop-color="#487BCE"/></linearGradient><linearGradient id="f" x1="701" y1="0" x2="134.822" y2="46.053" gradientUnits="userSpaceOnUse"><stop stop-color="#3359B9"/><stop offset="1" stop-color="#487BCE"/></linearGradient><linearGradient id="g" x1="740.037" y1="0" x2="175.944" y2="45.712" gradientUnits="userSpaceOnUse"><stop stop-color="#3359B9"/><stop offset="1" stop-color="#487BCE"/></linearGradient></defs></svg>